<svg xmlns="http://www.w3.org/2000/svg" width="256" height="256" viewBox="0 0 100 100"><rect width="100" height="100" rx="20" fill="#394343"></rect><path d="M19.91 65.27L19.91 65.27Q17.81 65.27 15.95 64.79Q14.09 64.31 12.89 63.65L12.89 63.65L12.89 75.29Q12.59 75.41 11.99 75.56Q11.39 75.71 10.67 75.71L10.67 75.71Q8.09 75.71 8.09 73.49L8.09 73.49L8.09 41.81Q8.09 40.61 8.51 39.89Q8.93 39.17 10.25 38.39L10.25 38.39Q11.87 37.49 14.12 36.74Q16.37 35.99 19.25 35.99L19.25 35.99Q22.19 35.99 24.80 36.83Q27.41 37.67 29.30 39.44Q31.19 41.21 32.30 43.97Q33.41 46.73 33.41 50.57L33.41 50.57Q33.41 54.29 32.42 57.05Q31.43 59.81 29.63 61.64Q27.83 63.47 25.34 64.37Q22.85 65.27 19.91 65.27ZM19.25 61.31L19.25 61.31Q23.45 61.31 26.00 58.76Q28.55 56.21 28.55 50.57L28.55 50.57Q28.55 47.63 27.80 45.59Q27.05 43.55 25.76 42.29Q24.47 41.03 22.79 40.49Q21.11 39.95 19.25 39.95L19.25 39.95Q17.09 39.95 15.59 40.49Q14.09 41.03 12.89 41.69L12.89 41.69L12.89 59.39Q14.03 60.23 15.59 60.77Q17.15 61.31 19.25 61.31ZM64.55 27.35L64.55 59.93Q64.55 61.13 64.04 61.79Q63.53 62.45 62.45 63.11L62.45 63.11Q61.25 63.89 59.03 64.58Q56.81 65.27 53.93 65.27L53.93 65.27Q50.69 65.27 47.99 64.43Q45.29 63.59 43.34 61.82Q41.39 60.05 40.34 57.32Q39.29 54.59 39.29 50.75L39.29 50.75Q39.29 46.85 40.37 44.06Q41.45 41.27 43.28 39.47Q45.11 37.67 47.60 36.83Q50.09 35.99 52.91 35.99L52.91 35.99Q54.83 35.99 56.63 36.47Q58.43 36.95 59.75 37.67L59.75 37.67L59.75 25.61Q60.05 25.49 60.68 25.34Q61.31 25.19 61.97 25.19L61.97 25.19Q64.55 25.19 64.55 27.35L64.55 27.35ZM59.75 59.75L59.75 41.99Q58.55 41.15 56.99 40.55Q55.43 39.95 53.39 39.95L53.39 39.95Q51.53 39.95 49.88 40.52Q48.23 41.09 46.97 42.38Q45.71 43.67 44.96 45.77Q44.21 47.87 44.21 50.87L44.21 50.87Q44.21 56.39 46.85 58.85Q49.49 61.31 53.87 61.31L53.87 61.31Q55.97 61.31 57.32 60.86Q58.67 60.41 59.75 59.75L59.75 59.75ZM78.53 34.55L78.53 38.33L90.41 38.33Q90.59 38.63 90.77 39.11Q90.95 39.59 90.95 40.25L90.95 40.25Q90.95 42.23 89.09 42.23L89.09 42.23L78.59 42.23L78.59 64.37Q78.29 64.49 77.69 64.64Q77.09 64.79 76.37 64.79L76.37 64.79Q73.79 64.79 73.79 62.63L73.79 62.63L73.79 34.31Q73.79 29.03 76.64 26.66Q79.49 24.29 84.59 24.29L84.59 24.29Q88.01 24.29 89.96 25.19Q91.91 26.09 91.91 27.41L91.91 27.41Q91.91 28.73 90.89 29.63L90.89 29.63Q89.81 29.03 88.19 28.64Q86.57 28.25 85.07 28.25L85.07 28.25Q81.41 28.25 79.97 29.75Q78.53 31.25 78.53 34.55L78.53 34.55Z" fill="#fff"></path></svg>