<svg xmlns="http://www.w3.org/2000/svg" width="256" height="256" viewBox="0 0 100 100"><rect width="100" height="100" rx="20" fill="#394343"></rect><path fill="#fff" d="M16.73 44.27L16.73 73.44Q16.34 73.59 15.56 73.79Q14.78 73.98 13.85 73.98L13.85 73.98Q10.49 73.98 10.49 71.18L10.49 71.18L10.49 44.73Q10.49 42.94 11.16 41.89Q11.82 40.84 13.38 39.82L13.38 39.82Q15.41 38.49 18.88 37.52Q22.35 36.55 26.72 36.55L26.72 36.55Q32.96 36.55 32.96 39.66L32.96 39.66Q32.96 40.45 32.72 41.11Q32.49 41.77 32.10 42.24L32.10 42.24Q31.32 42.08 30.07 41.93Q28.82 41.77 27.57 41.77L27.57 41.77Q23.99 41.77 21.26 42.51Q18.53 43.25 16.73 44.27L16.73 44.27ZM68.37 61.27L68.37 61.27Q67.82 61.66 66.93 61.97Q66.03 62.28 64.94 62.28L64.94 62.28Q63.69 62.28 62.71 61.89Q61.74 61.50 61.35 60.65L61.35 60.65Q57.14 51.91 54.09 44.66Q51.05 37.40 49.18 32.64L49.18 32.64L48.87 32.64Q48.63 38.49 48.36 43.53Q48.09 48.56 47.78 53.35Q47.46 58.15 47.15 63.06Q46.84 67.98 46.53 73.59L46.53 73.59Q46.06 73.75 45.32 73.91Q44.58 74.06 43.72 74.06L43.72 74.06Q42.00 74.06 41.30 73.36Q40.60 72.66 40.60 71.33L40.60 71.33Q40.60 70.55 40.72 67.98Q40.83 65.41 41.07 61.74Q41.30 58.07 41.58 53.63Q41.85 49.18 42.20 44.58Q42.55 39.98 42.90 35.53Q43.25 31.09 43.56 27.42L43.56 27.42Q44.19 26.87 45.36 26.41Q46.53 25.94 48.01 25.94L48.01 25.94Q51.60 25.94 53.00 28.82L53.00 28.82Q54.48 31.87 56.01 35.26Q57.53 38.65 59.05 42.16Q60.57 45.67 62.01 49.10Q63.45 52.53 64.78 55.66L64.78 55.66L65.09 55.66Q66.81 51.52 68.52 47.50Q70.24 43.49 71.88 39.74Q73.52 36.00 75.00 32.72Q76.48 29.45 77.65 26.72L77.65 26.72Q78.35 26.33 79.44 26.13Q80.54 25.94 81.47 25.94L81.47 25.94Q85.14 25.94 85.69 28.43L85.69 28.43Q86.00 29.84 86.39 33.07Q86.78 36.31 87.17 40.52Q87.56 44.73 87.91 49.57Q88.26 54.41 88.57 58.89Q88.88 63.38 89.12 67.16Q89.35 70.94 89.51 73.13L89.51 73.13Q88.10 74.06 86.23 74.06L86.23 74.06Q85.06 74.06 84.16 73.48Q83.27 72.89 83.11 71.33L83.11 71.33Q82.72 65.64 82.41 60.02Q82.10 54.41 81.82 49.34Q81.55 44.27 81.32 40.02Q81.08 35.77 80.93 32.80L80.93 32.80L80.61 32.80Q79.76 34.98 78.63 37.71Q77.49 40.45 75.97 43.88Q74.45 47.31 72.58 51.64Q70.71 55.97 68.37 61.27Z"></path></svg>